<svg class="svg-icon" style="width: 1em; height: 1em;vertical-align: middle;fill: currentColor;overflow: hidden;" viewBox="0 0 1024 1024" version="1.1" xmlns="http://www.w3.org/2000/svg"><path d="M512 73.142857q119.428571 0 220.285714 58.857143T892 291.714286 950.857143 512t-58.857143 220.285714-159.714286 159.714286T512 950.857143t-220.285714-58.857143T132 732.285714 73.142857 512t58.857143-220.285714T291.714286 132 512 73.142857z m156.571429 297.714286q-1.142857 0.571429-5.428572 5.428571T655.428571 381.714286q1.142857 0 2.571429-2.857143t2.857143-6.285714 2-4q3.428571-4 12.571428-8.571429 8-3.428571 29.714286-6.857143 19.428571-4.571429 29.142857 6.285714-1.142857-1.142857 5.428572-7.428571t8.285714-6.857143q1.714286-1.142857 8.571429-2.571428t8.571428-4.285715l1.142857-12.571428q-6.857143 0.571429-10-4t-3.714285-12q0 1.142857-3.428572 4.571428 0-4-2.571428-4.571428t-6.571429 0.571428-5.142857 0.571429q-5.714286-1.714286-8.571429-4.285714t-4.571428-9.428572-2.285715-8.571428q-1.142857-2.857143-5.428571-6T708.571429 276.571429q-0.571429-1.142857-1.428572-3.142858t-1.714286-3.714285-2.285714-3.142857-3.142857-1.428572-4 2.857143-4.285714 5.714286-2.571429 2.857143q-1.714286-1.142857-3.428571-0.857143t-2.571429 0.571428-2.571428 1.714286-2.857143 2q-1.714286 1.142857-4.857143 1.714286t-4.857143 1.142857q8.571429-2.857143-0.571429-6.285714-5.714286-2.285714-9.142857-1.714286 5.142857-2.285714 4.285715-6.857143t-4.857143-8h2.857143q-0.571429-2.285714-4.857143-4.857143T645.714286 250.285714t-7.428572-3.428571q-4.571429-2.857143-19.428571-5.428572t-18.857143-0.285714q-2.857143 3.428571-2.571429 6t2.285715 8 2 7.142857q0.571429 3.428571-3.142857 7.428572t-3.714286 6.857143q0 4 8 8.857142t5.714286 12.285715q-1.714286 4.571429-9.142858 9.142857t-9.142857 6.857143q-2.857143 4.571429-0.857143 10.571428T595.428571 333.714286q1.142857 1.142857 0.857143 2.285714t-2 2.571429-3.142857 2.285714-3.714286 2l-1.714285 1.142857q-6.285714 2.857143-11.714286-3.428571T566.285714 325.714286q-4-14.285714-9.142857-17.142857-13.142857-4.571429-16.571428 0.571428-2.857143-7.428571-23.428572-14.857143-14.285714-5.142857-33.142857-2.285714 3.428571-0.571429 0-8.571429-4-8.571429-10.857143-6.857142 1.714286-3.428571 2.285714-10t0.571429-7.714286q1.714286-7.428571 6.857143-13.142857 0.571429-0.571429 4-4.857143t5.428571-7.714286 0.285715-3.428571q20 2.285714 28.571428-6.285715 2.857143-2.857143 6.571429-9.714285t6-9.714286q5.142857-3.428571 8-3.142857t8.285714 3.142857 8.285714 2.857143q8 0.571429 8.857143-6.285714t-4.285714-11.428572q6.857143 0.571429 1.714286-9.714286-2.857143-4-4.571429-5.142857-6.857143-2.285714-15.428571 2.857143-4.571429 2.285714 1.142857 4.571429-0.571429-0.571429-5.428572 6T530.857143 197.714286t-9.142857-2.857143q-0.571429-0.571429-3.142857-7.714286T513.142857 179.428571q-4.571429 0-9.142857 8.571429 1.714286-4.571429-6.285714-8.571429t-13.714286-4.571428q10.857143-6.857143-4.571429-15.428572-4-2.285714-11.714285-2.857142t-11.142857 2.285714q-2.857143 4-3.142858 6.571428t2.857143 4.571429T462.285714 173.142857t6.571429 2.285714 4.857143 1.714286q8 5.714286 4.571428 8-1.142857 0.571429-4.857143 2T466.857143 189.714286t-3.428572 2.285714q-1.714286 2.285714 0 8t-1.142857 8q-2.857143-2.857143-5.142857-10t-4-9.428571q4 5.142857-14.285714 3.428571l-5.714286-0.571429q-2.285714 0-9.142857 1.142858t-11.714286 0.571428-7.714285-4.571428q-2.285714-4.571429 0-11.428572 0.571429-2.285714 2.285714-1.142857-2.285714-1.714286-6.285714-5.428571t-5.714286-4.857143q-26.285714 8.571429-53.714286 23.428571 3.428571 0.571429 6.857143-0.571428 2.857143-1.142857 7.428571-3.714286t5.714286-3.142857q19.428571-8 24-4l2.857143-2.857143q8 9.142857 11.428571 14.285714-4-2.285714-17.142857-0.571428-11.428571 3.428571-12.571428 6.857142 4 6.857143 2.857143 10.285715-2.285714-1.714286-6.571429-5.714286T357.714286 193.714286t-8.571429-2.857143q-9.142857 0-12.571428 0.571428-83.428571 45.714286-134.285715 126.857143 4 4 6.857143 4.571429 2.285714 0.571429 2.857143 5.142857t1.428571 6.285714 6.571429-1.714285q5.142857 4.571429 1.714286 10.857142 0.571429-0.571429 25.142857 15.428572 10.857143 9.714286 12 12 1.714286 6.285714-5.714286 10.285714-0.571429-1.142857-5.142857-5.142857t-5.142857-2.285714q-1.714286 2.857143 0.285714 10.571428T249.142857 391.428571q-4 0-5.428571 9.142858t-1.428572 20.285714-0.571428 13.428571l1.142857 0.571429q-1.714286 6.857143 3.142857 19.714286T258.285714 465.714286q-7.428571 1.714286 11.428572 24.571428 3.428571 4.571429 4.571428 5.142857 1.714286 1.142857 6.857143 4.285715t8.571429 5.714285 5.714285 6q2.285714 2.857143 5.714286 12.857143t8 13.428572q-1.142857 3.428571 5.428572 11.428571t6 13.142857q-0.571429 0-1.428572 0.571429t-1.428571 0.571428q1.714286 4 8.857143 8t8.857142 7.428572q0.571429 1.714286 1.142858 5.714286t1.714285 6.285714 4.571429 1.142857q1.142857-11.428571-13.714286-35.428571-8.571429-14.285714-9.714286-16.571429-1.714286-2.857143-3.142857-8.857143T313.714286 522.857143q1.142857 0 3.428571 0.857143t4.857143 2 4.285714 2.285714 1.142857 1.714286q-1.714286 4 1.142858 10t6.857142 10.571428 9.714286 10.857143 6.857143 7.428572q3.428571 3.428571 8 11.142857t0 7.714285q5.142857 0 11.428571 5.714286t9.714286 11.428572q2.857143 4.571429 4.571429 14.857142t2.857143 13.714286q1.142857 4 4.857142 7.714286t7.142858 5.428571l9.142857 4.571429 7.428571 4q2.857143 1.142857 10.571429 6T440 667.428571q5.714286 2.285714 9.142857 2.285715t8.285714-1.428572 7.714286-2q8.571429-1.142857 16.571429 8.571429t12 12q20.571429 10.857143 31.428571 6.285714-1.142857 0.571429 0.285714 4.285714t4.571429 8.857143 5.142857 8.285715 3.142857 4.857142q2.857143 3.428571 10.285715 8.571429t10.285714 8.571429q3.428571-2.285714 4-5.142858-1.714286 4.571429 4 11.428572t10.285714 5.714286q8-1.714286 8-18.285715-17.714286 8.571429-28-10.285714 0-0.571429-1.428571-3.142857t-2.285715-4.857143-1.428571-4.857143 0-4.285714 2.857143-1.714286q5.142857 0 5.714286-2t-1.142858-7.142857-2.285714-7.428571q-0.571429-4.571429-6.285714-11.428572t-6.857143-8.571428q-2.857143 5.142857-9.142857 4.571428t-9.142857-5.142857q0 0.571429-0.857143 3.142857t-0.857143 3.714286q-7.428571 0-8.571429-0.571429 0.571429-1.714286 1.428572-10t2-12.857143q0.571429-2.285714 3.142857-6.857142t4.285714-8.285715 2.285715-7.142857-2.571429-5.428571-10-1.428572q-10.857143 0.571429-14.857143 11.428572-0.571429 1.714286-1.714286 6t-2.857142 6.571428-5.142858 4q-4 1.714286-13.714285 1.142857t-13.714286-2.857142q-7.428571-4.571429-12.857143-16.571429t-5.428571-21.142857q0-5.714286 1.428571-15.142857t1.714286-14.285715T445.714286 563.428571q1.714286-1.142857 5.142857-5.428571t5.714286-6q1.142857-0.571429 2.571428-0.857143t2.571429 0 2.285714-0.857143 1.714286-3.428571q-0.571429-0.571429-2.285715-1.714286-1.714286-1.714286-2.285714-1.714286 4 1.714286 16.285714-0.857142T493.142857 543.428571q8.571429 6.285714 12.571429-1.142857 0-0.571429-1.428572-5.428571T504 529.142857q2.857143 15.428571 16.571429 5.142857 1.714286 1.714286 8.857142 2.857143t10 2.857143q1.714286 1.142857 4 3.142857t3.142858 2.571429 2.857142-0.285715 4.857143-3.714285q5.714286 8 6.857143 13.714285 6.285714 22.857143 10.857143 25.142858 4 1.714286 6.285714 1.142857t2.571429-5.428572 0-8-0.857143-7.142857l-0.571429-4.571428v-10.285715l-0.571428-4.571428q-8.571429-1.714286-10.571429-6.857143t0.857143-10.571429 8.571429-10.571428q0.571429-0.571429 4.571428-2t8.857143-3.714286 7.142857-4.571429q12-10.857143 8.571429-20 4 0 6.285714-5.142857-0.571429 0-2.857143-1.714285t-4.285714-2.857143-2.571429-1.142857q5.142857-2.857143 1.142858-9.142858 2.857143-1.714286 4.285714-6.285714t4.285714-5.714286q5.142857 6.857143 12 1.142858 4-4.571429 0.571429-9.142858 2.857143-4 11.714285-6t10.571429-5.428571q4 1.142857 4.571429-1.142857t0.571428-6.857143 1.714286-6.857143q2.285714-2.857143 8.571428-5.142857t7.428572-2.857143l9.714286-6.285714q1.714286-2.285714 0-2.285714 10.285714 1.142857 17.714285-6.285715 5.714286-6.285714-3.428571-11.428571 1.714286-3.428571-1.714286-5.428572t-8.571428-3.142857q1.714286-0.571429 6.571428-0.285714t6-0.857143q8.571429-5.714286-4-9.142857-9.714286-2.857143-24.571428 6.857143z m-93.142858 501.142857q117.714286-20.571429 200.571429-108-1.714286-1.714286-7.142857-2.571429t-7.142857-2q-10.285714-4-13.714286-4.571428 0.571429-4-1.428571-7.428572t-4.571429-5.142857-7.142857-4.571428-6.285714-4q-1.142857-1.142857-4-3.428572t-4-3.142857-4.285715-2.571428-4.857143-1.142858-5.714285 0.571429l-1.714286 0.571429q-1.714286 0.571429-3.142857 1.428571t-3.142857 1.714286-2.285715 1.714285 0 1.428572q-12-9.714286-20.571428-12.571429-2.857143-0.571429-6.285714-3.142857t-6-4-5.714286-0.857143-6.571429 4q-2.857143 2.857143-3.428571 8.571429t-1.142857 7.428571q-4-2.857143 0-10t1.142857-10.571428q-1.714286-3.428571-6-2.571429t-6.857143 2.571429-6.571429 4.857143-5.142857 3.714285-4.857143 3.142857-4.857142 4.285715q-1.714286 2.285714-3.428572 6.857143t-2.857143 6.285714q-1.142857-2.285714-6.571428-3.714286t-5.428572-3.142857q1.142857 5.714286 2.285715 20t2.857142 21.714286q4 17.714286-6.857142 27.428571-15.428571 14.285714-16.571429 22.857143-2.285714 12.571429 6.857143 14.857143 0 4-4.571429 11.714286t-4 12.285714q0 3.428571 1.142857 9.142857z"  /></svg>